<?xml version="1.0" encoding="UTF-8"?>
<svg version="1.1" xmlns="http://www.w3.org/2000/svg" width="512" height="512">
<path d="M0 0 C0.93130737 -0.00979385 1.86261475 -0.01958771 2.82214355 -0.02967834 C23.50881808 -0.20238254 43.61559482 -0.05961209 63.9453125 4.23828125 C64.98719727 4.45790527 66.02908203 4.6775293 67.10253906 4.90380859 C108.47423594 13.92792216 145.13594476 32.73446387 177.9453125 59.23828125 C181.96102505 57.62968621 184.65010864 54.8018776 187.63183594 51.77880859 C188.18837357 51.22256302 188.74491119 50.66631744 189.3183136 50.09321594 C191.15188692 48.2582522 192.97827922 46.41631194 194.8046875 44.57421875 C196.07648775 43.29868736 197.34873103 42.02359758 198.62139893 40.74893188 C201.96637508 37.3963273 205.30530101 34.03775952 208.64300537 30.67791748 C212.05134081 27.24910669 215.46535995 23.82596552 218.87890625 20.40234375 C225.57328547 13.68652853 232.26128716 6.96440031 238.9453125 0.23828125 C243.3719196 3.94843652 247.58746126 7.75976418 251.66015625 11.85546875 C252.41106285 12.60849777 252.41106285 12.60849777 253.17713928 13.3767395 C254.74809848 14.95321796 256.31551127 16.53316698 257.8828125 18.11328125 C258.95874977 19.19424399 260.03491981 20.27497508 261.11132812 21.35546875 C263.72534542 23.98040766 266.33619846 26.60846753 268.9453125 29.23828125 C264.46324196 34.60679332 259.7254722 39.59856434 254.77315712 44.53348446 C253.96256818 45.34522724 253.15197924 46.15697003 252.316827 46.99331108 C250.07323627 49.23908731 247.82742775 51.4826175 245.58065275 53.7252072 C243.13436003 56.16805293 240.69098492 58.61381405 238.2472347 61.05920273 C233.96625793 65.34224992 229.68343204 69.62344103 225.39938354 73.90341568 C219.02919093 80.26756752 212.66187364 86.63459032 206.29513946 93.00220176 C195.58464281 103.71401169 184.87182184 114.4234942 174.15767288 125.13165092 C163.54976977 135.73363643 152.94290188 146.33665586 142.33741379 156.94105721 C141.67792516 157.60047709 141.01843653 158.25989698 140.3389634 158.9392993 C136.98974108 162.28818327 133.64053724 165.63708573 130.29134052 168.9859953 C106.5707386 192.70449696 82.8478192 216.42067946 59.12353516 240.13549805 C36.07613682 263.1737116 13.02978939 286.21297559 -10.01513672 309.25366211 C-10.72551818 309.96391204 -11.43589963 310.67416197 -12.1678078 311.40593463 C-19.3017679 318.5385762 -26.43570664 325.67123913 -33.56962974 332.8039177 C-48.10217377 347.33392555 -62.63486032 361.86379084 -77.16763306 376.39356995 C-77.83582204 377.06162164 -78.50401103 377.72967334 -79.19244817 378.41796903 C-123.81080722 423.02712786 -168.43248827 467.63296376 -213.0546875 512.23828125 C-214.16176218 511.29757456 -215.26765536 510.35547733 -216.37306213 509.41281128 C-216.98903543 508.88833342 -217.60500872 508.36385555 -218.23964787 507.82348442 C-220.86792425 505.52802377 -223.30828425 503.0962461 -225.76953125 500.62109375 C-226.27013565 500.1190744 -226.77074005 499.61705505 -227.28651428 499.099823 C-228.85747348 497.52334454 -230.42488627 495.94339552 -231.9921875 494.36328125 C-233.06812477 493.28231851 -234.14429481 492.20158742 -235.22070312 491.12109375 C-237.83472042 488.49615484 -240.44557346 485.86809497 -243.0546875 483.23828125 C-237.43531088 476.3792101 -231.15154239 470.20818634 -224.875 463.9609375 C-223.69508303 462.78288867 -222.51538892 461.60461659 -221.33590698 460.4261322 C-218.25079059 457.34480983 -215.16268161 454.26650409 -212.07391357 451.18884277 C-208.91463017 448.03984091 -205.75822234 444.88795954 -202.6015625 441.73632812 C-196.42206223 435.56751015 -190.2393936 429.40187996 -184.0546875 423.23828125 C-185.36961187 420.54888287 -186.72134585 418.20624899 -188.55859375 415.83984375 C-189.04730957 415.20320801 -189.53602539 414.56657227 -190.03955078 413.91064453 C-190.5601709 413.23501465 -191.08079102 412.55938477 -191.6171875 411.86328125 C-216.13232227 379.53087646 -232.59965633 342.14769737 -240.0546875 302.23828125 C-240.21694824 301.43326172 -240.37920898 300.62824219 -240.54638672 299.79882812 C-246.03526385 271.72568563 -245.78752745 238.24299672 -240.0546875 210.23828125 C-239.76464844 208.74337158 -239.76464844 208.74337158 -239.46875 207.21826172 C-230.03806632 159.48997914 -208.06853976 115.19423674 -174.0546875 80.23828125 C-173.36213867 79.51995117 -172.66958984 78.80162109 -171.95605469 78.06152344 C-162.21696409 67.99382582 -152.46747591 58.38890901 -141.0546875 50.23828125 C-140.43561523 49.79081543 -139.81654297 49.34334961 -139.17871094 48.88232422 C-99.02523183 20.0125576 -49.92369031 0.43701523 0 0 Z M-117.0546875 84.23828125 C-118.06402344 85.01816406 -119.07335937 85.79804687 -120.11328125 86.6015625 C-127.05723602 92.14687673 -133.5864213 98.15159622 -140.0546875 104.23828125 C-140.71339844 104.85445313 -141.37210938 105.470625 -142.05078125 106.10546875 C-178.3656965 141.16236153 -201.42323633 195.31173446 -202.390625 245.5390625 C-202.43129565 248.8765596 -202.4375305 252.21307068 -202.4296875 255.55078125 C-202.42914368 256.42579285 -202.42859985 257.30080444 -202.42803955 258.20233154 C-202.28964878 306.85056116 -185.85487262 355.01335867 -154.0546875 392.23828125 C-150.22517096 390.65667269 -147.80292514 388.23505176 -144.89290237 385.32259178 C-144.38346327 384.81546036 -143.87402416 384.30832894 -143.3491475 383.7858299 C-141.63547023 382.07746573 -139.92904685 380.36203413 -138.22247314 378.64657593 C-136.98613255 377.41110713 -135.74935269 376.17607777 -134.51217055 374.94145167 C-131.10762497 371.54138868 -127.70936468 368.13510307 -124.31207108 364.72779608 C-120.64973241 361.05683836 -116.98163425 357.39164381 -113.31422424 353.72575378 C-106.95893647 347.37151584 -100.60732729 341.01361981 -94.25818634 334.6532402 C-85.07833525 325.45715037 -75.89298105 316.26657357 -66.7062647 307.07734258 C-51.8023785 292.16907672 -36.90296616 277.25634794 -22.00634766 262.34082031 C-7.533753 247.84987386 6.94093611 233.36102482 21.41845703 218.875 C22.31051782 217.98241377 23.2025786 217.08982754 24.12167153 216.17019324 C28.5967919 211.69246283 33.07195359 207.21477372 37.54713583 202.73710513 C74.68626923 165.5772308 111.81815072 128.41011641 148.9453125 91.23828125 C147.02777218 86.90100133 144.04188076 84.7431634 140.2578125 82.05078125 C139.24533447 81.32459595 139.24533447 81.32459595 138.21240234 80.58374023 C62.36012993 26.88371905 -43.00364794 26.74497906 -117.0546875 84.23828125 Z " fill="#000000" transform="translate(243.0546875,-0.23828125)"/>
<path d="M0 0 C4.49175632 4.19833403 6.88950763 8.89872052 9.6875 14.3125 C10.21424316 15.32997314 10.74098633 16.34744629 11.28369141 17.39575195 C29.66145253 53.61370102 38.46599197 93.07509289 38.3125 133.5625 C38.31034485 134.58323608 38.3081897 135.60397217 38.30596924 136.65563965 C38.25630099 151.29829998 37.94579688 165.60988899 35 180 C34.70996094 181.49490967 34.70996094 181.49490967 34.4140625 183.02001953 C26.29528127 224.10882055 8.92584885 261.20299494 -17 294 C-17.81210937 295.03769531 -18.62421875 296.07539063 -19.4609375 297.14453125 C-32.13011611 312.71123494 -46.68798964 327.27786525 -63 339 C-64.16988456 339.8637527 -65.3391425 340.72835469 -66.5078125 341.59375 C-87.1338243 356.73707742 -109.74297127 368.8192165 -134 377 C-135.22251465 377.41306396 -135.22251465 377.41306396 -136.46972656 377.83447266 C-146.24057677 381.07255506 -156.12218737 383.60485473 -166.1875 385.75 C-167.11216064 385.94875732 -168.03682129 386.14751465 -168.98950195 386.35229492 C-185.00635552 389.60643751 -200.76094487 390.37622254 -217.0625 390.3125 C-218.05545074 390.31034485 -219.04840149 390.3081897 -220.07144165 390.30596924 C-234.89168869 390.25437906 -249.41605543 389.87087554 -264 387 C-265.54445801 386.70198486 -265.54445801 386.70198486 -267.12011719 386.39794922 C-297.15602884 380.42566116 -324.56444404 369.29303298 -351 354 C-351 349.52920636 -348.04025621 347.55307348 -345.05078125 344.546875 C-344.44115036 343.92725891 -343.83151947 343.30764282 -343.20341492 342.66925049 C-341.91019187 341.36082835 -340.61285308 340.05646341 -339.31176758 338.75585938 C-337.32184324 336.75937404 -335.35711765 334.74017916 -333.39257812 332.71875 C-332.13428796 331.45165808 -330.8745682 330.1859839 -329.61328125 328.921875 C-328.73329216 328.00955109 -328.73329216 328.00955109 -327.83552551 327.07879639 C-323.68775505 322.99936443 -323.68775505 322.99936443 -320.3581543 323.00244141 C-318.08372523 323.96458212 -315.85424822 324.91202268 -313.65625 326.0390625 C-312.83334473 326.4513208 -312.01043945 326.8635791 -311.16259766 327.28833008 C-310.28394043 327.72943115 -309.4052832 328.17053223 -308.5 328.625 C-290.69958183 337.28679681 -272.40955427 342.34307219 -253 346 C-251.12441406 346.35384766 -251.12441406 346.35384766 -249.2109375 346.71484375 C-196.77584221 355.2871684 -139.06794699 341.53762046 -95.75 310.8125 C-49.72252349 277.34920797 -18.87830877 230.86562252 -7 175 C-6.82065918 174.19320801 -6.64131836 173.38641602 -6.45654297 172.55517578 C-0.77113492 145.94611112 -1.72617317 114.34918343 -8 88 C-8.3700415 86.44007324 -8.3700415 86.44007324 -8.74755859 84.84863281 C-13.09226075 67.11243308 -19.21064749 50.33402596 -28.06640625 34.34765625 C-29.16553042 31.58374987 -28.97726868 30.74879793 -28 28 C-26.8167572 26.45599365 -26.8167572 26.45599365 -25.31616211 24.97558594 C-24.75565659 24.41530701 -24.19515106 23.85502808 -23.61766052 23.277771 C-23.01035599 22.68595032 -22.40305145 22.09412964 -21.77734375 21.484375 C-21.15726944 20.86854553 -20.53719513 20.25271606 -19.89833069 19.6182251 C-17.91832095 17.65499365 -15.92813081 15.70245564 -13.9375 13.75 C-12.59241465 12.41996252 -11.24800512 11.08924121 -9.90429688 9.7578125 C-6.61065094 6.49722463 -3.30783661 3.24618812 0 0 Z " fill="#000000" transform="translate(474,122)"/>
</svg>
